<svg id="Layer_1" data-name="Layer 1" xmlns="http://www.w3.org/2000/svg" xmlns:xlink="http://www.w3.org/1999/xlink" viewBox="0 0 1456.7 582.8"><defs><style>.cls-1{fill:#fff;}.cls-2{fill:#3b5998;}.cls-3{fill:url(#未命名漸層);}.cls-4{fill:#ffd6a1;}.cls-5{fill:#ea533b;}.cls-6{fill:#d93c1c;}.cls-7{fill:#e5e5e5;}.cls-8{fill:#333;}.cls-9{fill:#ffa929;}.cls-10{fill:#f4253e;}.cls-11{fill:#d42428;}</style><linearGradient id="未命名漸層" x1="1096.92" y1="391.37" x2="924.43" y2="649.36" gradientTransform="matrix(1, 0, 0, -1, 0, 944.04)" gradientUnits="userSpaceOnUse"><stop offset="0" stop-color="#e09b3d"/><stop offset="0.3" stop-color="#c74c4d"/><stop offset="0.6" stop-color="#c21975"/><stop offset="1" stop-color="#7024c4"/></linearGradient></defs><title>communityIcon</title><path class="cls-1" d="M728.3,0A145.7,145.7,0,1,0,874,145.7,145.64,145.64,0,0,0,728.3,0Zm36.5,100.3H746.1c-5.1,0-8.7,4.3-8.7,9.6v8.4h26.8l-4.3,27.2H737.4v72.8H710V145.5H691.8V118.3H710V104.5h.1c.5-15.8,6-30.9,32.7-31.8v-.1h22Z"/><circle class="cls-1" cx="1019.6" cy="145.7" r="22.6" transform="matrix(0.97, -0.23, 0.23, 0.97, -6.2, 238.15)"/><path class="cls-1" d="M1048.5,88.6H990.7a28.17,28.17,0,0,0-28.2,28.2v57.8a28.17,28.17,0,0,0,28.2,28.2h57.8a28.17,28.17,0,0,0,28.2-28.2V116.8A28.17,28.17,0,0,0,1048.5,88.6Zm-28.9,94.1a37,37,0,1,1,37-37A37,37,0,0,1,1019.6,182.7Zm37.1-64.8a8.9,8.9,0,1,1,8.9-8.9A8.9,8.9,0,0,1,1056.7,117.9Z"/><path class="cls-1" d="M1019.6,0a145.7,145.7,0,1,0,145.7,145.7A145.64,145.64,0,0,0,1019.6,0Zm71.5,174.6a42.64,42.64,0,0,1-42.6,42.6H990.7a42.64,42.64,0,0,1-42.6-42.6V116.8a42.64,42.64,0,0,1,42.6-42.6h57.8a42.64,42.64,0,0,1,42.6,42.6Z"/><path class="cls-1" d="M145.7,0A145.7,145.7,0,1,0,291.4,145.7,145.66,145.66,0,0,0,145.7,0Zm61.9,220.3c-18.5,10-43,15.5-69.1,15.5s-50.6-5.5-69.1-15.5c-19.2-10.4-29.8-24.4-29.8-39.5a28.1,28.1,0,0,1,.4-5c.7-16.8,14.7-41.3,35.8-62.4,14.1-14.2,29.8-25.3,44-31.2,15.3-6.3,27.4-6.1,34.2.7,5.6,5.6,6.7,14.9,3.3,26.7,9.9-3.9,19.9-5.9,28.7-5.7,12,.3,20.9,4.6,25.3,12.1,4.2,7.2,3.6,16.6-1.5,26.6,17.7,10.2,27.4,23.7,27.6,38.2C237.4,195.9,226.8,209.9,207.6,220.3ZM191.4,92.9a5.55,5.55,0,0,1,5.5-5.5A31.07,31.07,0,0,1,228,118.5a5.5,5.5,0,0,1-11,0,20.1,20.1,0,0,0-20.1-20.1A5.55,5.55,0,0,1,191.4,92.9Zm60.2,42.4a7.56,7.56,0,0,1-8.4.3A7.37,7.37,0,0,1,240,128a43.18,43.18,0,0,0,1-9.5,47.71,47.71,0,0,0-47.6-47.6c-1.1,0-2.1,0-3.2.1a7.32,7.32,0,0,1-1-14.6c1.3-.1,2.7-.1,4.1-.1a62.42,62.42,0,0,1,62.3,62.2,65.12,65.12,0,0,1-1.2,12.4A8,8,0,0,1,251.6,135.3Z"/><path class="cls-1" d="M170,138.8c-13.4-7.2-30.5-10.3-48.3-8.8s-34.1,7.6-46,17c-12.4,9.8-18.6,22-17.5,34.5s9.3,23.5,23.2,30.9c11.1,6,24.9,9.2,39.4,9.2a86.37,86.37,0,0,0,8.8-.4c17.8-1.5,34.1-7.6,46-17,12.4-9.8,18.6-22.1,17.6-34.5S183.9,146.2,170,138.8Zm-38.4,70a45.91,45.91,0,0,1-10.3,1.2,39.18,39.18,0,0,1-17-3.8c-8.3-4-14-10.8-16-19-4-16.7,8.9-34.1,28.8-38.9s39.3,4.9,43.3,21.6S151.6,204,131.6,208.8Z"/><circle class="cls-1" cx="114.6" cy="186.3" r="12.8"/><circle class="cls-1" cx="138.4" cy="173.5" r="7.3"/><path class="cls-1" d="M437,0A145.7,145.7,0,1,0,582.7,145.7,145.66,145.66,0,0,0,437,0Zm85.3,121.6a6.19,6.19,0,0,1,6.1-6.1c3.9,0,6.1,2,6.3,5.6a6.13,6.13,0,0,1-5.7,6.7,10.48,10.48,0,0,1-2.5.1c-4.9.1-4.1.2-4.2-4ZM355.1,131c-.6,7.3-1,14.6-1.8,21.9a95.06,95.06,0,0,1-2.6,12.9c-.6,2.8-1.8,5.6-4.8,7.4-2.4-4.3-4.6-8.4-6.9-12.5a3.08,3.08,0,0,1-.2-1.6c2.8-9.1,3.4-18.5,3.1-28,0-1.4.4-1.9,1.8-1.9,3.3.1,6.5,0,9.8,0C354.8,129.2,355.2,129.8,355.1,131ZM377,169.3a17.94,17.94,0,0,1-1.3,6.5,6.67,6.67,0,0,1-6.4,4.3c-3.1-.1-6.2.7-9.2-1.2a10.55,10.55,0,0,1-4.4-6.7c-.4-1.5.1-2.5,1.9-2.4,1.5.1,3,0,4.5,0a1.86,1.86,0,0,0,2.1-2.1V114.1c0-2.9,0-2.9,3-2.9,2.5,0,5,.1,7.5,0,1.8-.1,2.4.6,2.4,2.3-.1,9.7,0,19.4,0,29.1C377.1,151.5,377.2,160.4,377,169.3Zm25.4-8.5c-2.2,4.1-4.5,8.1-6.8,12.4-3.1-1.9-4.1-4.9-5.1-7.9-2.7-8.4-3.4-17.1-3.8-25.8-.1-2.8-.3-5.5-.4-8.3-.1-1.5.5-2.1,2-2.1h9.4c1.4,0,1.7.7,1.8,2,.3,6,.5,12.1,1.1,18.1.3,3.1,1.2,6.1,1.8,9.2A4.86,4.86,0,0,1,402.4,160.8Zm20.3,18.7a2.74,2.74,0,0,1-1.9.7H406.1c-.6,0-1.5,0-1.8-.4-.5-.4-1-1.5-.8-1.9,1.6-3.3,3.3-6.6,5.1-9.8a1.81,1.81,0,0,1,1.4-1c5.2.1,10.5.3,15.7.5.9,0,1.8.1,3.2.1C426.6,172,424.7,175.8,422.7,179.5Zm4.4-16.8c-4-.1-8,0-12,0-3.2,0-4.9-2.1-3.7-5.1,1.9-4.9,4.3-9.6,6.4-14.3,1-2.1.7-2.7-1.6-2.7-2.1,0-4.3,0-6.4-.1-2.6-.1-3.9-1.8-3-4.3,1.2-3.4,2.7-6.7,4.2-10,2.1-4.4,4.4-8.7,6.6-13.1.7-1.4,1.5-2.2,3.3-2.1,3.2.3,6.4.2,10.2.2-2,3.8-3.6,7-5.3,10.1-1.1,2.1-2.3,4.2-3.3,6.4-.3.6,0,1.5,0,2.3a15.17,15.17,0,0,0,2.1-.3c.3-.1.6-.4.9-.5h11.7c-1.2,2.5-2.3,4.6-3.3,6.7-2.3,4.5-4.6,8.9-6.9,13.4-.9,1.8-.5,2.7,1.5,2.8,1.3.1,2.7,0,4.1.1s2,.7,1.2,2c-1.3,2.3-2.6,4.5-3.8,6.9A2.57,2.57,0,0,1,427.1,162.7Zm47.5,7.7c-.2,2.2,0,4.4,0,6.6,0,3.1,0,3.1-3.2,3.1H432.8c-.9,0-1.7-.1-2.9-.2,2-3.9,3.8-7.2,5.4-10.7a2.37,2.37,0,0,1,2.5-1.5h8.8c1.6,0,2.3-.5,2.3-2.2V131.1c0-1.9-.9-2.5-2.6-2.5H442c-1.4,0-1.9-.6-1.9-2v-9.4c0-1.2.5-1.7,1.6-1.7h26.7c1.2,0,1.8.5,1.8,1.8-.1,3.1,0,6.3,0,9.4,0,1.2-.5,1.8-1.8,1.9-1.5,0-3,.1-4.5,0-1.7,0-2.5.6-2.5,2.4v34.4c0,1.8.8,2.4,2.5,2.3,2.6-.1,5.3.1,7.9,0C473.9,167.6,474.8,168.2,474.6,170.4Zm60.5-1.8c0,6.8-5,11.9-11.6,11.3-2.8-.3-5.7-.3-8.3-1.3-3-1.1-4.5-4-5.4-7-.4-1.5.2-2.3,1.8-2.3h8.1c1.6,0,2.3-.7,2.3-2.3V155.5a3.6,3.6,0,0,0-3.7-3.8c-5.3-.1-10.7,0-16,0-1.8,0-1.8,1.3-1.8,2.5v22.9c0,2.9,0,2.9-3,2.9h-7.9c-1.3,0-1.9-.6-1.9-2,.3-3.8.2-7.8.2-11.8V154.7c0-2.5-.5-2.8-2.9-2.9h-8.3c-1.4,0-1.9-.5-1.9-1.9.1-3,0-6,0-9,0-1.4.6-1.9,1.9-1.9,2.8.1,5.7,0,8.5,0,1.8,0,2.6-.8,2.6-2.6v-6.2a2,2,0,0,0-2.3-2.2h-.6c-5.5-.1-5.5-.1-5.5-5.5,0-1.7.1-3.4,0-5.1s.6-2.2,2.1-2.1c1.2.1,2.4,0,3.6,0,1.7.1,2.8-.6,2.7-2.4-.1-1.5.6-1.9,1.9-1.9,2.9,0,5.8.1,8.8,0,1.4,0,2.2.4,2,1.9-.2,2,1,2.4,2.7,2.4,3.7-.1,7.3-.1,10.7,2.2,4.4,2.9,6.3,7,6.7,12a48.46,48.46,0,0,1,0,6.6c-.1,1.8.5,2.8,2.5,2.9,4.8.2,8.5,2.4,10.5,6.8a14.68,14.68,0,0,1,1.4,6.1C535.2,157.4,535.1,163,535.1,168.6Z"/><path class="cls-1" d="M505,128.3c-4-.4-4.3-.1-4.3,3.8a6.15,6.15,0,0,0-.1,1.4c0,6,0,5.9,5,5.6,1.3-.1,2-.6,2-1.9V131A2.49,2.49,0,0,0,505,128.3Z"/><polygon class="cls-1" points="1295.7 171.5 1339.2 142.8 1295.7 114.1 1295.7 171.5"/><path class="cls-1" d="M1311,0a145.7,145.7,0,1,0,145.7,145.7A145.66,145.66,0,0,0,1311,0Zm76.1,176.2a22.79,22.79,0,0,1-22.8,22.8H1257.5a22.79,22.79,0,0,1-22.8-22.8V115.1a22.79,22.79,0,0,1,22.8-22.8h106.8a22.79,22.79,0,0,1,22.8,22.8Z"/><path class="cls-2" d="M728.3,291.4A145.7,145.7,0,1,1,582.7,437.1,145.66,145.66,0,0,1,728.3,291.4Z"/><path class="cls-1" d="M746.1,391.7h18.7V364h-22v.1c-26.7.9-32.2,16-32.7,31.8H710v13.8H691.8v27.2H710v72.8h27.4V436.9h22.5l4.3-27.2H737.4v-8.4C737.4,396,741,391.7,746.1,391.7Z"/><path class="cls-3" d="M1019.6,291.4A145.7,145.7,0,1,1,874,437.1,145.66,145.66,0,0,1,1019.6,291.4Z"/><path class="cls-1" d="M1048.5,365.6H990.7a42.64,42.64,0,0,0-42.6,42.6V466a42.64,42.64,0,0,0,42.6,42.6h57.8a42.64,42.64,0,0,0,42.6-42.6V408.2A42.64,42.64,0,0,0,1048.5,365.6ZM1076.7,466a28.17,28.17,0,0,1-28.2,28.2H990.7A28.17,28.17,0,0,1,962.5,466V408.2A28.17,28.17,0,0,1,990.7,380h57.8a28.17,28.17,0,0,1,28.2,28.2V466Z"/><path class="cls-1" d="M1019.6,400.1a37,37,0,1,0,37,37A37,37,0,0,0,1019.6,400.1Zm0,59.6a22.6,22.6,0,1,1,22.6-22.6A22.58,22.58,0,0,1,1019.6,459.7Z"/><circle class="cls-1" cx="1056.7" cy="400.4" r="8.9"/><path class="cls-4" d="M145.7,291.4A145.7,145.7,0,1,1,0,437.1,145.66,145.66,0,0,1,145.7,291.4Z"/><path class="cls-5" d="M209.8,434c5.1-10,5.7-19.4,1.5-26.6-4.4-7.5-13.3-11.8-25.3-12.1-8.8-.2-18.8,1.8-28.7,5.7,3.4-11.8,2.3-21.1-3.3-26.7-6.8-6.8-18.9-7-34.2-.7-14.2,5.9-29.9,17-44,31.2C54.7,425.9,40.7,450.4,40,467.2a28.1,28.1,0,0,0-.4,5c0,15.1,10.6,29.1,29.8,39.5,18.5,10,43,15.5,69.1,15.5s50.6-5.5,69.1-15.5c19.2-10.4,29.8-24.4,29.8-39.5C237.2,457.7,227.5,444.2,209.8,434Z"/><path class="cls-6" d="M149.3,523.5c-26,0-50.6-5.5-69.1-15.5C61,497.6,50.4,483.6,50.4,468.5a28.86,28.86,0,0,1,.4-5c.7-16.9,14.7-41.3,35.8-62.4,14-14,29.5-25,43.6-31a68.85,68.85,0,0,0-10.6,3.5c-14.2,5.9-29.9,17-44,31.2-21.1,21.1-35.1,45.6-35.8,62.4a28.1,28.1,0,0,0-.4,5c0,15.1,10.6,29.1,29.8,39.5,18.5,10,43,15.5,69.1,15.5,20.5,0,40.1-3.4,56.5-9.7A168.58,168.58,0,0,1,149.3,523.5Z"/><path class="cls-1" d="M193.2,461.1c-1.1-12.5-9.3-23.5-23.2-30.9-13.4-7.2-30.5-10.3-48.3-8.8s-34.1,7.6-46,17c-12.4,9.8-18.6,22-17.5,34.5s9.3,23.5,23.2,30.9c11.1,6,24.9,9.2,39.4,9.2a86.37,86.37,0,0,0,8.8-.4c17.8-1.5,34.1-7.6,46-17C188,485.8,194.2,473.5,193.2,461.1Z"/><path class="cls-7" d="M136.7,508.9a87.69,87.69,0,0,1-8.8.4c-14.5,0-28.3-3.2-39.4-9.2-13.9-7.5-22.1-18.5-23.2-30.9s5.1-24.7,17.5-34.5a78.15,78.15,0,0,1,7.9-5.4,71.14,71.14,0,0,0-14.9,9c-12.4,9.8-18.6,22-17.5,34.5s9.3,23.5,23.2,30.9c11.1,6,24.9,9.2,39.4,9.2a86.37,86.37,0,0,0,8.8-.4,91.54,91.54,0,0,0,38.1-11.6A96.83,96.83,0,0,1,136.7,508.9Z"/><path class="cls-8" d="M160.4,461.3c-4-16.7-23.4-26.4-43.3-21.6s-32.8,22.2-28.8,38.9c2,8.2,7.7,15,16,19a39.18,39.18,0,0,0,17,3.8,45.91,45.91,0,0,0,10.3-1.2C151.6,495.4,164.5,478,160.4,461.3Z"/><circle class="cls-1" cx="114.6" cy="477.7" r="12.8"/><path class="cls-9" d="M196.9,378.8a5.5,5.5,0,0,0,0,11A20.1,20.1,0,0,1,217,409.9a5.5,5.5,0,0,0,11,0A31.07,31.07,0,0,0,196.9,378.8Z"/><path class="cls-9" d="M193.3,347.7c-1.4,0-2.8,0-4.1.1a7.32,7.32,0,0,0,1,14.6c1.1-.1,2.1-.1,3.2-.1A47.71,47.71,0,0,1,241,409.9a43.18,43.18,0,0,1-1,9.5,7.37,7.37,0,0,0,3.2,7.6,7.56,7.56,0,0,0,8.4-.3,8,8,0,0,0,2.8-4.4,65.12,65.12,0,0,0,1.2-12.4A62.42,62.42,0,0,0,193.3,347.7Z"/><circle class="cls-1" cx="138.4" cy="464.9" r="7.3"/><path class="cls-10" d="M437,291.4A145.7,145.7,0,1,1,291.3,437.1,145.72,145.72,0,0,1,437,291.4Z"/><path class="cls-1" d="M487.9,457.6V446.1c0-2.5-.5-2.8-2.9-2.9h-8.3c-1.4,0-1.9-.5-1.9-1.9.1-3,0-6,0-9,0-1.4.6-1.9,1.9-1.9,2.8.1,5.7,0,8.5,0,1.8,0,2.6-.8,2.6-2.6v-6.2a2,2,0,0,0-2.3-2.2h-.6c-5.5-.1-5.5-.1-5.5-5.5,0-1.7.1-3.4,0-5.1s.6-2.2,2.1-2.1c1.2.1,2.4,0,3.6,0,1.7.1,2.8-.6,2.7-2.4-.1-1.5.6-1.9,1.9-1.9,2.9,0,5.8.1,8.8,0,1.4,0,2.2.4,2,1.9-.2,2,1,2.4,2.7,2.4,3.7-.1,7.3-.1,10.7,2.2,4.4,2.9,6.3,7,6.7,12a48.46,48.46,0,0,1,0,6.6c-.1,1.8.5,2.8,2.5,2.9,4.8.2,8.5,2.4,10.5,6.8a14.68,14.68,0,0,1,1.4,6.1c.2,5.5.1,11.1.1,16.7,0,6.8-5,11.9-11.6,11.3-2.8-.3-5.7-.3-8.3-1.3-3-1.1-4.5-4-5.4-7-.4-1.5.2-2.3,1.8-2.3h8.1c1.6,0,2.3-.7,2.3-2.3V446.9a3.6,3.6,0,0,0-3.7-3.8c-5.3-.1-10.7,0-16,0-1.8,0-1.8,1.3-1.8,2.5v22.9c0,2.9,0,2.9-3,2.9h-7.9c-1.3,0-1.9-.6-1.9-2,.3-3.8.2-7.8.2-11.8Zm12.7-32.7c0,6,0,5.9,5,5.6,1.3-.1,2-.6,2-1.9v-6.2a2.49,2.49,0,0,0-2.6-2.7c-4-.4-4.3-.1-4.3,3.8A6.15,6.15,0,0,0,500.6,424.9Z"/><path class="cls-1" d="M429.9,471.3c2-3.9,3.8-7.2,5.4-10.7a2.37,2.37,0,0,1,2.5-1.5h8.8c1.6,0,2.3-.5,2.3-2.2V422.5c0-1.9-.9-2.5-2.6-2.5H442c-1.4,0-1.9-.6-1.9-2v-9.4c0-1.2.5-1.7,1.6-1.7h26.7c1.2,0,1.8.5,1.8,1.8-.1,3.1,0,6.3,0,9.4,0,1.2-.5,1.8-1.8,1.9-1.5,0-3,.1-4.5,0-1.7,0-2.5.6-2.5,2.4v34.4c0,1.8.8,2.4,2.5,2.3,2.6-.1,5.3.1,7.9,0,2.1-.1,3,.5,2.8,2.7s0,4.4,0,6.6c0,3.1,0,3.1-3.2,3.1H432.8C431.9,471.5,431.1,471.4,429.9,471.3Z"/><path class="cls-1" d="M377.1,434c0,8.9.1,17.8-.1,26.7a17.94,17.94,0,0,1-1.3,6.5,6.67,6.67,0,0,1-6.4,4.3c-3.1-.1-6.2.7-9.2-1.2a10.55,10.55,0,0,1-4.4-6.7c-.4-1.5.1-2.5,1.9-2.4,1.5.1,3,0,4.5,0a1.86,1.86,0,0,0,2.1-2.1V405.5c0-2.9,0-2.9,3-2.9,2.5,0,5,.1,7.5,0,1.8-.1,2.4.6,2.4,2.3C377,414.6,377.1,424.3,377.1,434Z"/><path class="cls-1" d="M431.1,402.6c-2,3.8-3.6,7-5.3,10.1-1.1,2.1-2.3,4.2-3.3,6.4-.3.6,0,1.5,0,2.3a15.17,15.17,0,0,0,2.1-.3c.3-.1.6-.4.9-.5h11.7c-1.2,2.5-2.3,4.6-3.3,6.7-2.3,4.5-4.6,8.9-6.9,13.4-.9,1.8-.5,2.7,1.5,2.8,1.3.1,2.7,0,4.1.1s2,.7,1.2,2c-1.3,2.3-2.6,4.5-3.8,6.9a2.57,2.57,0,0,1-2.9,1.6c-4-.1-8,0-12,0-3.2,0-4.9-2.1-3.7-5.1,1.9-4.9,4.3-9.6,6.4-14.3,1-2.1.7-2.7-1.6-2.7-2.1,0-4.3,0-6.4-.1-2.6-.1-3.9-1.8-3-4.3,1.2-3.4,2.7-6.7,4.2-10,2.1-4.4,4.4-8.7,6.6-13.1.7-1.4,1.5-2.2,3.3-2.1C424.1,402.7,427.3,402.6,431.1,402.6Z"/><path class="cls-1" d="M345.9,464.6c-2.4-4.3-4.6-8.4-6.9-12.5a3.08,3.08,0,0,1-.2-1.6c2.8-9.1,3.4-18.5,3.1-28,0-1.4.4-1.9,1.8-1.9,3.3.1,6.5,0,9.8,0,1.3,0,1.7.6,1.6,1.8-.6,7.3-1,14.6-1.8,21.9a95.06,95.06,0,0,1-2.6,12.9C350.1,460,348.9,462.8,345.9,464.6Z"/><path class="cls-1" d="M395.6,464.6c-3.1-1.9-4.1-4.9-5.1-7.9-2.7-8.4-3.4-17.1-3.8-25.8-.1-2.8-.3-5.5-.4-8.3-.1-1.5.5-2.1,2-2.1h9.4c1.4,0,1.7.7,1.8,2,.3,6,.5,12.1,1.1,18.1.3,3.1,1.2,6.1,1.8,9.2a4.86,4.86,0,0,1,0,2.4C400.2,456.3,397.9,460.3,395.6,464.6Z"/><path class="cls-1" d="M428.9,459.1c-2.3,4.3-4.2,8.1-6.2,11.8a2.74,2.74,0,0,1-1.9.7H406.1c-.6,0-1.5,0-1.8-.4-.5-.4-1-1.5-.8-1.9,1.6-3.3,3.3-6.6,5.1-9.8a1.81,1.81,0,0,1,1.4-1c5.2.1,10.5.3,15.7.5C426.6,459,427.5,459.1,428.9,459.1Z"/><path class="cls-1" d="M526.5,419.3c-4.9.1-4.1.2-4.2-4V413a6.19,6.19,0,0,1,6.1-6.1c3.9,0,6.1,2,6.3,5.6a6.13,6.13,0,0,1-5.7,6.7A10.48,10.48,0,0,1,526.5,419.3Z"/><path class="cls-11" d="M1311,291.4a145.7,145.7,0,1,1-145.7,145.7A145.66,145.66,0,0,1,1311,291.4Z"/><path class="cls-1" d="M1387.1,406.5a22.79,22.79,0,0,0-22.8-22.8H1257.5a22.79,22.79,0,0,0-22.8,22.8v61.1a22.79,22.79,0,0,0,22.8,22.8h106.8a22.79,22.79,0,0,0,22.8-22.8V406.5Zm-91.4,56.4V405.5l43.5,28.7Z"/></svg>